<svg width="14" height="9" viewBox="0 0 14 9" fill="none" xmlns="http://www.w3.org/2000/svg">
<path id="Vector" d="M0.666667 0H12.6667C13.0333 0 13.3333 0.3 13.3333 0.666667C13.3333 1.03333 13.0333 1.33333 12.6667 1.33333V8.66667H11.3333V7.33333H8.66667V8.66667H7.33333V1.33333H2V8.66667H0.666667V1.33333C0.3 1.33333 0 1.03333 0 0.666667C0 0.3 0.3 0 0.666667 0ZM9.33333 3V3.33333H10.6667V3C10.6667 2.81333 10.52 2.66667 10.3333 2.66667H9.66667C9.48 2.66667 9.33333 2.81333 9.33333 3ZM9.33333 5.66667V6H10.6667V5.66667C10.6667 5.48 10.52 5.33333 10.3333 5.33333H9.66667C9.48 5.33333 9.33333 5.48 9.33333 5.66667Z" fill="white"/>
</svg>
