<svg width="40" height="53" viewBox="0 0 40 53" fill="none" xmlns="http://www.w3.org/2000/svg">
<path d="M39.4659 13.0507L27.2386 0.546202C26.8977 0.197562 26.4375 0 25.9545 0H1.81818C0.8125 0 0 0.830924 0 1.85941V50.2041C0 51.2326 0.8125 52.0635 1.81818 52.0635H38.1818C39.1875 52.0635 40 51.2326 40 50.2041V14.3698C40 13.8758 39.8068 13.3994 39.4659 13.0507ZM35.8068 15.2239H25.1136V4.28827L35.8068 15.2239ZM35.9091 47.8798H4.09091V4.18367H21.25V16.7347C21.25 17.3819 21.5014 18.0027 21.9489 18.4604C22.3965 18.918 23.0035 19.1752 23.6364 19.1752H35.9091V47.8798Z" fill="black"/>
</svg>
