<svg width="14" height="13" viewBox="0 0 14 13" fill="none" xmlns="http://www.w3.org/2000/svg">
<path d="M6.95291 6.08961C8.21303 6.08961 9.19312 5.06284 9.19312 3.80272C9.19312 2.5426 8.16636 1.5625 6.90623 1.5625C5.64611 1.5625 4.66602 2.58927 4.66602 3.80272C4.66602 5.06284 5.69278 6.08961 6.95291 6.08961ZM6.90623 2.49592C6.95291 2.49592 6.95291 2.49592 6.90623 2.49592C7.65297 2.49592 8.2597 3.10265 8.2597 3.84939C8.2597 4.59613 7.65297 5.15618 6.90623 5.15618C6.15949 5.15618 5.59944 4.54946 5.59944 3.84939C5.59944 3.10265 6.20617 2.49592 6.90623 2.49592Z" fill="white"/>
<path d="M13.8592 5.81482C12.9725 5.02141 11.8057 4.60137 10.5922 4.64804H10.2189C10.1255 5.02141 9.98551 5.34811 9.79883 5.62814C10.0789 5.58147 10.3122 5.58147 10.5922 5.58147C11.479 5.5348 12.3657 5.81482 13.0658 6.32821V9.68854H13.9992V5.95484L13.8592 5.81482Z" fill="white"/>
<path d="M9.52058 1.65693C9.75394 1.09688 10.4073 0.816848 11.0141 1.0502C11.5741 1.28356 11.8541 1.93696 11.6208 2.54368C11.4341 2.96372 11.0141 3.24375 10.594 3.24375C10.5007 3.24375 10.3607 3.24375 10.2673 3.19708C10.314 3.43044 10.314 3.66379 10.314 3.85048V4.13051C10.4073 4.13051 10.5007 4.17718 10.594 4.17718C11.7608 4.17718 12.6942 3.24375 12.6942 2.12364C12.6942 0.956862 11.7608 0.0234375 10.6407 0.0234375C9.89395 0.0234375 9.24056 0.396807 8.86719 1.0502C9.10054 1.19022 9.3339 1.3769 9.52058 1.65693Z" fill="white"/>
<path d="M4.20041 5.67111C4.01373 5.39109 3.87371 5.06439 3.78037 4.69102H3.407C2.19355 4.64435 1.02677 5.06439 0.140014 5.81113L0 5.95114V9.68484H0.933425V6.32451C1.68016 5.81113 2.52025 5.5311 3.407 5.57777C3.68703 5.57777 3.96705 5.62444 4.20041 5.67111Z" fill="white"/>
<path d="M3.40585 4.13321C3.49919 4.13321 3.59254 4.13321 3.68588 4.08654V3.80651C3.68588 3.57316 3.68588 3.3398 3.73255 3.15312C3.63921 3.19979 3.49919 3.19979 3.40585 3.19979C2.79912 3.19979 2.28574 2.6864 2.28574 2.07968C2.28574 1.47295 2.79912 0.959569 3.40585 0.959569C3.87256 0.959569 4.2926 1.2396 4.47929 1.65964C4.66597 1.42628 4.946 1.19293 5.17936 1.00624C4.57263 0.0261448 3.31251 -0.300554 2.33241 0.306172C1.35232 0.912898 1.02562 2.17302 1.63234 3.15312C2.00571 3.75984 2.65911 4.13321 3.40585 4.13321Z" fill="white"/>
<path d="M10.7816 8.61216L10.6883 8.47215C9.75488 7.44538 8.44808 6.83865 7.04795 6.88532C5.64781 6.83865 4.29434 7.44538 3.36092 8.47215L3.26758 8.61216V12.1592C3.26758 12.5792 3.59428 12.9526 4.06099 12.9526H10.0349C10.4549 12.9526 10.8283 12.5792 10.8283 12.1592V8.61216H10.7816ZM9.84822 12.0192H4.201V8.93886C4.94774 8.19212 5.97451 7.81875 7.04795 7.81875C8.07471 7.77208 9.10148 8.19212 9.84822 8.93886V12.0192Z" fill="white"/>
</svg>
