<svg width="13" height="13" viewBox="0 0 13 13" fill="none" xmlns="http://www.w3.org/2000/svg">
<path id="Vector" d="M12.7815 5.36403L6.93159 0.164189C6.81271 0.058427 6.65912 0 6.5 0C6.34088 0 6.1873 0.058427 6.06841 0.164189L0.218527 5.36403C0.089581 5.4785 0.0113877 5.63949 0.00114839 5.81161C-0.00909089 5.98373 0.0494627 6.15286 0.163928 6.2818C0.278393 6.41075 0.439393 6.48894 0.611511 6.49918C0.783628 6.50942 0.952764 6.45087 1.08171 6.3364L1.3001 6.14206V12.35C1.3001 12.5224 1.36859 12.6877 1.49048 12.8096C1.61238 12.9315 1.7777 13 1.95009 13H11.0499C11.2223 13 11.3876 12.9315 11.5095 12.8096C11.6314 12.6877 11.6999 12.5224 11.6999 12.35V6.14206L11.9183 6.3364C12.0472 6.45087 12.2164 6.50942 12.3885 6.49918C12.4737 6.49411 12.5571 6.4723 12.6339 6.43501C12.7107 6.39771 12.7794 6.34565 12.8361 6.2818C12.8928 6.21796 12.9363 6.14357 12.9642 6.0629C12.9922 5.98222 13.0039 5.89683 12.9989 5.81161C12.9938 5.72639 12.972 5.643 12.9347 5.5662C12.8974 5.48941 12.8453 5.42071 12.7815 5.36403ZM4.66964 11.7C4.80201 11.3201 5.04933 10.9908 5.37731 10.7577C5.70528 10.5247 6.09766 10.3995 6.5 10.3995C6.90234 10.3995 7.29472 10.5247 7.62269 10.7577C7.95067 10.9908 8.198 11.3201 8.33036 11.7H4.66964ZM5.52502 8.12515C5.52502 7.93232 5.5822 7.74382 5.68933 7.58348C5.79647 7.42315 5.94874 7.29819 6.12689 7.22439C6.30505 7.1506 6.50108 7.13129 6.69021 7.16891C6.87934 7.20653 7.05306 7.29939 7.18942 7.43574C7.32577 7.57209 7.41863 7.74581 7.45625 7.93494C7.49387 8.12407 7.47456 8.3201 7.40077 8.49825C7.32697 8.67641 7.20201 8.82868 7.04167 8.93581C6.88134 9.04294 6.69283 9.10012 6.5 9.10012C6.24153 9.09977 5.99373 8.99694 5.81097 8.81418C5.6282 8.63141 5.52536 8.38362 5.52502 8.12515ZM10.3999 11.7H9.68429C9.5944 11.2691 9.4179 10.8609 9.1655 10.5002C8.9131 10.1396 8.59005 9.83395 8.21597 9.6019C8.57425 9.19315 8.77277 8.6687 8.77495 8.12515C8.77495 7.5218 8.53527 6.94316 8.10864 6.51653C7.682 6.0899 7.10336 5.85022 6.5 5.85022C5.89665 5.85022 5.318 6.0899 4.89137 6.51653C4.46473 6.94316 4.22505 7.5218 4.22505 8.12515C4.22723 8.6687 4.42575 9.19315 4.78404 9.6019C4.40983 9.83389 4.08666 10.1395 3.83414 10.5002C3.58162 10.8608 3.40503 11.269 3.31506 11.7H2.60008V4.98639L6.5 1.52005L10.3999 4.98639V11.7Z" fill="white"/>
</svg>
